<svg width="301" height="353" viewBox="0 0 301 353" fill="none" xmlns="http://www.w3.org/2000/svg">
<path d="M24.5 105C61.3 63.8 112.833 70.8333 134 79.5C117.5 83.5 83 113.5 77.5 139C72 164.5 70.5 169.5 79.5 204C86.7 231.6 117.833 253.167 132.5 260.5C85 277.5 51 256.5 29.5 240C7.99999 223.5 -21.5 156.5 24.5 105Z" fill="#FFDE5A"/>
<path d="M288.5 49.5L238.5 100.5C221.3 84.1 200 76.6667 191.5 75L217.5 49.5C183.1 16.7 148.167 5.83332 135 4.49999C159.8 -2.30001 195.667 1.66666 210.5 4.49999C247.3 13.3 277.833 38.1667 288.5 49.5Z" fill="#FFDE5A"/>
<path d="M289.5 291L238 240C222.4 256 200.5 263.333 191.5 265L216 291C186.4 319.917 149.667 332.715 135 335.5C207 353.1 268 313.167 289.5 291Z" fill="#FFDE5A"/>
<circle cx="289.5" cy="341.5" r="11.5" fill="#FFDE5A"/>
</svg>
